<svg width="15" height="15" viewBox="0 0 15 15" fill="none" xmlns="http://www.w3.org/2000/svg">
<path d="M3.58524 3.14941C3.40457 3.21045 3.26907 3.32031 3.17875 3.479C3.14945 3.54004 3.1348 3.63037 3.1348 3.75C3.1348 3.86963 3.14945 3.95996 3.17875 4.021C3.21048 4.07959 3.79031 4.67407 4.91824 5.80444L6.6138 7.5L4.91824 9.19556C3.79031 10.3259 3.21048 10.9216 3.17875 10.9827C3.14945 11.0413 3.1348 11.1255 3.1348 11.2354C3.1348 11.3452 3.147 11.4307 3.17142 11.4917C3.19827 11.5503 3.24588 11.615 3.31424 11.6858C3.38504 11.7542 3.44974 11.8018 3.50833 11.8286C3.56936 11.853 3.65481 11.8652 3.76468 11.8652C3.87454 11.8652 3.95877 11.8506 4.01736 11.8213C4.0784 11.7896 4.6741 11.2097 5.80447 10.0818L7.50003 8.38623L9.19559 10.0818C10.326 11.2097 10.9204 11.7896 10.979 11.8213C11.0401 11.8506 11.1255 11.8652 11.2354 11.8652C11.3452 11.8652 11.4295 11.853 11.4881 11.8286C11.5491 11.8018 11.6138 11.7542 11.6822 11.6858C11.753 11.615 11.8006 11.5503 11.825 11.4917C11.8518 11.4307 11.8653 11.3452 11.8653 11.2354C11.8653 11.1255 11.8494 11.0413 11.8177 10.9827C11.7884 10.9216 11.2098 10.3259 10.0818 9.19556L8.38626 7.5L10.0818 5.80444C11.2097 4.67407 11.7884 4.07959 11.8177 4.021C11.8494 3.95996 11.8653 3.86963 11.8653 3.75C11.8653 3.63037 11.8506 3.54004 11.8213 3.479C11.7505 3.35938 11.6504 3.26416 11.521 3.19336C11.4795 3.17383 11.4441 3.15918 11.4148 3.14941C11.3855 3.13965 11.3306 3.13477 11.25 3.13477C11.1695 3.13477 11.1145 3.13965 11.0852 3.14941C11.0559 3.15918 11.0157 3.17383 10.9644 3.19336C10.8936 3.23487 10.2991 3.81592 9.18094 4.93652L7.50003 6.61377L4.47147 3.59985C4.2493 3.38989 4.09915 3.25439 4.02103 3.19336C3.95999 3.1543 3.88919 3.13477 3.80863 3.13477H3.77932C3.67922 3.13477 3.61453 3.13965 3.58524 3.14941Z" fill="currentColor"/>
</svg>
