<svg width="15" height="15" viewBox="0 0 15 15" fill="none" xmlns="http://www.w3.org/2000/svg">
<g clip-path="url(#clip0_2356_44)">
<path d="M11.7884 0.644342C11.3489 0.673642 10.94 0.82867 10.5616 1.10943C10.4517 1.18023 8.97586 2.64019 6.13407 5.48932C3.29471 8.33844 1.83475 9.81305 1.75419 9.91314C1.65409 10.0547 1.57108 10.2183 1.50517 10.4039C1.44169 10.587 1.28177 11.1094 1.02542 11.9712C0.771517 12.8306 0.639681 13.2896 0.629917 13.3482C0.620152 13.4385 0.627477 13.5362 0.651892 13.6412C0.676306 13.7461 0.708045 13.834 0.747109 13.9048C0.788617 13.9756 0.849649 14.0489 0.930206 14.1246C1.01077 14.1978 1.08523 14.2503 1.1536 14.282C1.2244 14.3113 1.30497 14.3358 1.3953 14.3553C1.48563 14.3748 1.56742 14.3797 1.64066 14.3699C1.71635 14.3602 2.20951 14.2198 3.12015 13.9488L4.45682 13.5313C4.64481 13.4703 4.7742 13.4251 4.845 13.3958L4.85965 13.3812C4.95975 13.3299 5.07449 13.2493 5.20389 13.1395C5.38455 12.9686 5.77029 12.5938 6.36112 12.0152L9.49588 8.88042C12.345 6.02886 13.8098 4.54815 13.8904 4.43829C14.0198 4.26007 14.1248 4.07574 14.2054 3.88531C14.3763 3.45562 14.419 3.01617 14.3335 2.56696C14.2481 2.1153 14.0454 1.71979 13.7256 1.38042C13.4742 1.1192 13.1836 0.923884 12.854 0.794492C12.5244 0.665099 12.1692 0.615049 11.7884 0.644342ZM12.2388 1.90411C12.439 1.94561 12.6209 2.04937 12.7845 2.21539C12.9505 2.37896 13.0542 2.56085 13.0957 2.76105C13.1543 3.0296 13.1238 3.28473 13.0042 3.52642C12.9749 3.58501 12.9273 3.64971 12.8614 3.72052C12.7979 3.78888 12.6453 3.94879 12.4036 4.20025L11.8653 4.73858L10.2613 3.13458L10.7996 2.59625C11.0511 2.35455 11.211 2.20196 11.2793 2.13848C11.3501 2.07256 11.4148 2.02495 11.4734 1.99566C11.7151 1.87603 11.9703 1.84551 12.2388 1.90411ZM7.69412 8.90973C5.49442 11.1094 4.37137 12.2227 4.32498 12.2496C4.28104 12.274 3.89408 12.3985 3.16409 12.6231C2.43411 12.8477 2.06424 12.9576 2.05448 12.9527C2.04471 12.9478 2.1497 12.5804 2.36942 11.8504C2.58915 11.1204 2.70878 10.7383 2.72831 10.7042C2.75028 10.6675 3.866 9.53961 6.07547 7.32037L9.38968 4.00616L10.979 5.61017L7.69412 8.90973Z" fill="currentColor"/>
</g>
<defs>
<clipPath id="clip0_2356_44">
<rect width="15" height="15" fill="white"/>
</clipPath>
</defs>
</svg>
